<svg width="1286" height="1285" xmlns="http://www.w3.org/2000/svg" xmlns:xlink="http://www.w3.org/1999/xlink" xml:space="preserve" overflow="hidden"><g transform="translate(-1557 -595)"><path d="M2567.9 1491.31C2503.42 1491.31 2451.11 1543.58 2451.11 1608 2451.11 1672.61 2503.6 1724.88 2567.9 1724.88 2632.38 1724.88 2684.87 1672.43 2684.87 1608 2684.87 1543.39 2632.19 1491.31 2567.9 1491.31ZM1843.91 1491.31C1779.25 1491.31 1727.12 1543.94 1727.12 1608 1727.12 1672.43 1779.43 1724.88 1843.91 1724.88 1908.75 1724.88 1960.88 1671.89 1960.88 1608 1960.88 1543.39 1908.21 1491.31 1843.91 1491.31ZM2199.91 1120.68C2135.44 1120.68 2083.14 1172.96 2083.14 1237.41 2083.14 1301.85 2135.44 1354.32 2199.91 1354.32 2264.38 1354.32 2316.86 1301.85 2316.86 1237.41 2316.86 1172.96 2264.38 1120.68 2199.91 1120.68ZM2199.91 1039.36C2309.23 1039.36 2398.22 1128.31 2398.22 1237.41 2398.22 1346.69 2309.23 1435.64 2199.91 1435.64 2090.77 1435.64 2001.78 1346.69 2001.78 1237.41 2001.78 1128.31 2090.77 1039.36 2199.91 1039.36ZM2567.9 750.121C2503.6 750.121 2451.11 802.389 2451.11 866.998 2451.11 931.245 2503.42 983.693 2567.9 983.693 2632.92 983.693 2684.87 930.882 2684.87 866.998 2684.87 802.571 2632.38 750.121 2567.9 750.121ZM1843.91 750.121C1779.43 750.121 1727.12 802.571 1727.12 866.998 1727.12 930.882 1779.25 983.693 1843.91 983.693 1908.75 983.693 1960.88 931.063 1960.88 866.998 1960.88 802.935 1908.75 750.121 1843.91 750.121ZM2199.91 699.305C2129.8 699.305 2060.05 713.1 1995.57 739.414 2025.91 775.529 2042.25 821.083 2042.25 866.998 2042.25 976.072 1953.25 1065 1843.91 1065 1795.41 1065 1747.28 1047.21 1710.23 1013.09 1678.08 1083.15 1661.37 1159.73 1661.37 1237.41 1661.37 1315.27 1678.08 1391.85 1710.23 1461.72 1747.28 1427.79 1795.41 1410 1843.91 1410 1953.25 1410 2042.25 1498.75 2042.25 1608 2042.25 1655.55 2025 1700.56 1995.57 1735.59 2060.05 1761.9 2129.8 1775.69 2199.91 1775.69 2273.47 1775.69 2346.12 1760.63 2413.14 1731.78 2383.72 1695.3 2369.74 1651.02 2369.74 1608 2369.74 1498.75 2458.74 1410 2567.9 1410 2613.48 1410 2657.8 1425.43 2693.04 1454.29 2723.01 1386.41 2738.63 1312.36 2738.63 1237.41 2738.63 1162.64 2723.01 1088.59 2693.04 1020.72 2656.35 1050.66 2611.49 1065 2567.9 1065 2458.55 1065 2369.74 976.072 2369.74 866.998 2369.74 822.717 2384.45 778.797 2413.14 743.043 2346.12 714.37 2273.47 699.305 2199.91 699.305ZM2199.91 618C2299.26 618 2397.16 641.956 2484.89 687.146 2510.14 675.531 2538.29 668.816 2567.9 668.816 2677.24 668.816 2766.24 757.744 2766.24 866.998 2766.24 896.037 2759.88 923.622 2748.44 948.485 2795.3 1037.23 2820 1136.5 2820 1237.41 2820 1338.32 2795.3 1437.77 2748.44 1526.33 2759.88 1551.38 2766.24 1578.97 2766.24 1608 2766.24 1717.26 2677.24 1806 2567.9 1806 2538.29 1806 2510.14 1799.47 2484.89 1787.67 2397.16 1833.04 2299.26 1857 2199.91 1857 2102.92 1857 2006.83 1834.13 1920.74 1790.58 1897.13 1800.56 1871.15 1806 1843.91 1806 1734.75 1806 1645.75 1717.26 1645.75 1608 1645.75 1583.68 1650.11 1560.45 1658.28 1538.86 1607.06 1447.03 1580 1343.4 1580 1237.41 1580 1131.6 1607.06 1027.79 1658.28 935.962 1650.11 914.547 1645.75 891.136 1645.75 866.998 1645.75 757.744 1734.75 668.816 1843.91 668.816 1871.15 668.816 1897.13 674.442 1920.74 684.242 2006.83 640.868 2102.92 618 2199.91 618Z" stroke="#2F5597" stroke-width="45.8333" stroke-miterlimit="8" fill="#2F5597" fill-rule="evenodd"/></g></svg>